<svg width="30" height="30" viewBox="0 0 30 30" fill="none" xmlns="http://www.w3.org/2000/svg">
<path d="M3.47277 23.0891C3.47277 17.3249 0.486938 13.3666 0.486938 10.5891C0.486938 7.81158 2.08361 1.97742 14.8611 1.97742C27.6386 1.97742 29.5136 9.82492 29.5136 12.8799C29.5144 27.1858 3.47277 33.2974 3.47277 23.0891Z" fill="#FCD5BA"/>
<path d="M13.0901 20.9342C12.9335 21.0908 12.7218 21.1783 12.501 21.1783C12.2801 21.1783 12.0676 21.0908 11.9118 20.9342L6.91179 15.9342C6.58595 15.6083 6.58679 15.0808 6.91179 14.7558L8.09012 13.5775C8.41595 13.2517 8.94345 13.2517 9.26845 13.5775L12.501 16.8092L20.7334 8.5775C21.0593 8.25167 21.5868 8.25167 21.9118 8.5775L23.0901 9.75584C23.4159 10.0817 23.4159 10.6092 23.0901 10.9342L13.0901 20.9342Z" fill="#FF6633"/>
<path d="M8.78588 15.9339C8.46005 15.6081 8.46088 15.0806 8.78588 14.7556L9.61588 13.9256L9.26755 13.5773C8.94171 13.2514 8.41421 13.2514 8.08921 13.5773L6.91088 14.7556C6.58505 15.0814 6.58505 15.6089 6.91088 15.9339L11.9109 20.9339C12.0675 21.0906 12.2792 21.1781 12.5 21.1781C12.7209 21.1781 12.9334 21.0906 13.0892 20.9339L13.4375 20.5856L8.78588 15.9339Z" fill="black" fill-opacity="0.1"/>
</svg>
