<svg width="113" height="92" viewBox="0 0 113 92" fill="none" xmlns="http://www.w3.org/2000/svg">
<path d="M100.625 48.6621H12.2546C10.4014 48.6621 8.89502 50.2388 9.05642 52.0913C10.9932 74.1475 31.4673 91.5034 56.4366 91.5034C81.406 91.5034 101.88 74.1475 103.817 52.0913C103.984 50.2388 102.478 48.6621 100.625 48.6621Z" fill="#FF6633"/>
<path d="M40.4875 15.6594C39.5012 15.6594 38.5208 15.2157 37.8812 14.3644C34.6531 10.1078 28.5199 7.45799 21.8785 7.45799C15.2372 7.45799 9.10393 10.1019 5.87591 14.3644C4.78197 15.8092 2.7256 16.085 1.29092 14.9879C-0.149734 13.8908 -0.424714 11.8285 0.669227 10.3896C5.1765 4.44244 13.1031 0.893311 21.8785 0.893311C30.654 0.893311 38.5806 4.44244 43.0938 10.3896C44.1878 11.8344 43.9068 13.8908 42.4721 14.9879C41.8743 15.4435 41.1809 15.6594 40.4875 15.6594Z" fill="#414141"/>
<path d="M109.603 15.6594C108.617 15.6594 107.636 15.2157 106.997 14.3644C103.769 10.1078 97.6355 7.45799 90.9941 7.45799C84.3528 7.45799 78.2195 10.1019 74.9915 14.3644C73.8976 15.8092 71.8412 16.085 70.4065 14.9879C68.9659 13.8908 68.6909 11.8285 69.7848 10.3896C74.2921 4.44244 82.2187 0.893311 90.9941 0.893311C99.7696 0.893311 107.696 4.44244 112.209 10.3896C113.303 11.8344 113.022 13.8908 111.588 14.9879C110.99 15.4435 110.297 15.6594 109.603 15.6594Z" fill="#414141"/>
</svg>
