<svg width="351" height="94" viewBox="0 0 351 94" fill="none" xmlns="http://www.w3.org/2000/svg">
<rect width="351" height="94" rx="8" fill="#E5FFDE"/>
<path d="M46.444 40.18C44.728 40.18 43.378 39.766 42.394 38.938C41.422 38.11 40.906 36.898 40.846 35.302C40.834 34.978 40.828 34.45 40.828 33.718C40.828 32.974 40.834 32.434 40.846 32.098C40.906 30.538 41.428 29.338 42.412 28.498C43.408 27.646 44.752 27.22 46.444 27.22C47.512 27.22 48.466 27.394 49.306 27.742C50.158 28.09 50.83 28.594 51.322 29.254C51.814 29.914 52.072 30.694 52.096 31.594C52.096 31.702 52.054 31.792 51.97 31.864C51.898 31.936 51.808 31.972 51.7 31.972H49.144C48.976 31.972 48.85 31.942 48.766 31.882C48.694 31.81 48.628 31.684 48.568 31.504C48.4 30.916 48.142 30.508 47.794 30.28C47.458 30.04 47.008 29.92 46.444 29.92C45.088 29.92 44.386 30.676 44.338 32.188C44.326 32.512 44.32 33.01 44.32 33.682C44.32 34.354 44.326 34.864 44.338 35.212C44.386 36.724 45.088 37.48 46.444 37.48C46.996 37.48 47.446 37.36 47.794 37.12C48.154 36.88 48.412 36.472 48.568 35.896C48.616 35.716 48.682 35.596 48.766 35.536C48.85 35.464 48.976 35.428 49.144 35.428H51.7C51.808 35.428 51.898 35.464 51.97 35.536C52.054 35.608 52.096 35.698 52.096 35.806C52.072 36.706 51.814 37.486 51.322 38.146C50.83 38.806 50.158 39.31 49.306 39.658C48.466 40.006 47.512 40.18 46.444 40.18ZM54.185 40C54.065 40 53.957 39.958 53.861 39.874C53.777 39.778 53.735 39.67 53.735 39.55V31.09C53.735 30.958 53.777 30.85 53.861 30.766C53.957 30.682 54.065 30.64 54.185 30.64H62.555C62.687 30.64 62.795 30.682 62.879 30.766C62.963 30.85 63.005 30.958 63.005 31.09V39.55C63.005 39.67 62.963 39.778 62.879 39.874C62.795 39.958 62.687 40 62.555 40H60.305C60.185 40 60.077 39.958 59.981 39.874C59.897 39.778 59.855 39.67 59.855 39.55V33.088H56.903V39.55C56.903 39.682 56.855 39.79 56.759 39.874C56.675 39.958 56.567 40 56.435 40H54.185ZM67.9692 40.18C67.3332 40.18 66.7512 40.06 66.2232 39.82C65.7072 39.568 65.2992 39.226 64.9992 38.794C64.7112 38.362 64.5672 37.888 64.5672 37.372C64.5672 36.556 64.9032 35.896 65.5752 35.392C66.2592 34.876 67.1952 34.522 68.3832 34.33L70.6152 33.988V33.772C70.6152 33.328 70.5252 33.004 70.3452 32.8C70.1652 32.596 69.8592 32.494 69.4272 32.494C69.1872 32.494 68.9832 32.536 68.8152 32.62C68.6592 32.704 68.4792 32.83 68.2752 32.998C68.1192 33.13 67.9812 33.226 67.8612 33.286C67.8132 33.37 67.7532 33.412 67.6812 33.412H65.5932C65.4732 33.412 65.3712 33.376 65.2872 33.304C65.2152 33.22 65.1852 33.124 65.1972 33.016C65.2092 32.692 65.3712 32.332 65.6832 31.936C65.9952 31.528 66.4692 31.18 67.1052 30.892C67.7412 30.604 68.5272 30.46 69.4632 30.46C70.9512 30.46 72.0552 30.79 72.7752 31.45C73.4952 32.098 73.8552 32.98 73.8552 34.096V39.55C73.8552 39.67 73.8132 39.778 73.7292 39.874C73.6452 39.958 73.5372 40 73.4052 40H71.1912C71.0712 40 70.9632 39.958 70.8672 39.874C70.7832 39.778 70.7412 39.67 70.7412 39.55V38.92C70.4772 39.292 70.1112 39.598 69.6432 39.838C69.1752 40.066 68.6172 40.18 67.9692 40.18ZM68.8692 38.056C69.3972 38.056 69.8232 37.882 70.1472 37.534C70.4832 37.186 70.6512 36.682 70.6512 36.022V35.806L69.1572 36.058C68.1492 36.25 67.6452 36.61 67.6452 37.138C67.6452 37.414 67.7592 37.636 67.9872 37.804C68.2272 37.972 68.5212 38.056 68.8692 38.056ZM80.1691 40.18C78.8011 40.18 77.6911 39.82 76.8391 39.1C75.9991 38.368 75.5491 37.354 75.4891 36.058L75.4711 35.338L75.4891 34.6C75.5371 33.304 75.9871 32.29 76.8391 31.558C77.6911 30.826 78.8011 30.46 80.1691 30.46C81.2131 30.46 82.0891 30.646 82.7971 31.018C83.5051 31.39 84.0331 31.834 84.3811 32.35C84.7291 32.854 84.9151 33.316 84.9391 33.736C84.9511 33.868 84.9091 33.982 84.8131 34.078C84.7171 34.162 84.6031 34.204 84.4711 34.204H82.0591C81.9271 34.204 81.8251 34.174 81.7531 34.114C81.6811 34.054 81.6151 33.958 81.5551 33.826C81.4231 33.49 81.2491 33.244 81.0331 33.088C80.8291 32.932 80.5651 32.854 80.2411 32.854C79.3171 32.854 78.8371 33.466 78.8011 34.69L78.7831 35.374L78.8011 35.968C78.8131 36.592 78.9391 37.054 79.1791 37.354C79.4191 37.642 79.7731 37.786 80.2411 37.786C80.5891 37.786 80.8591 37.714 81.0511 37.57C81.2551 37.414 81.4231 37.162 81.5551 36.814C81.6151 36.682 81.6811 36.586 81.7531 36.526C81.8251 36.466 81.9271 36.436 82.0591 36.436H84.4711C84.5911 36.436 84.6991 36.478 84.7951 36.562C84.8911 36.646 84.9391 36.748 84.9391 36.868C84.9391 37.24 84.7711 37.69 84.4351 38.218C84.1111 38.734 83.5891 39.19 82.8691 39.586C82.1491 39.982 81.2491 40.18 80.1691 40.18ZM95.681 30.64C95.801 30.64 95.903 30.682 95.987 30.766C96.083 30.85 96.131 30.952 96.131 31.072V39.55C96.131 39.67 96.089 39.778 96.005 39.874C95.921 39.958 95.813 40 95.681 40H93.431C93.299 40 93.185 39.958 93.089 39.874C93.005 39.79 92.963 39.682 92.963 39.55V34.672L89.453 39.712C89.321 39.904 89.153 40 88.949 40H86.933C86.813 40 86.705 39.958 86.609 39.874C86.525 39.778 86.483 39.67 86.483 39.55V31.09C86.483 30.958 86.525 30.85 86.609 30.766C86.705 30.682 86.813 30.64 86.933 30.64H89.183C89.315 30.64 89.423 30.682 89.507 30.766C89.603 30.85 89.651 30.958 89.651 31.09V35.968L93.161 30.928C93.293 30.736 93.461 30.64 93.665 30.64H95.681ZM107.374 35.104C107.398 35.392 107.41 35.62 107.41 35.788C107.41 35.944 107.398 36.154 107.374 36.418C107.302 37.618 106.858 38.548 106.042 39.208C105.238 39.856 104.08 40.18 102.568 40.18C100.936 40.18 99.7423 39.79 98.9863 39.01C98.2423 38.23 97.8283 36.988 97.7443 35.284L97.7263 34.186L97.7443 33.106C97.8043 31.462 98.0863 30.22 98.5903 29.38C99.1063 28.54 99.8683 27.91 100.876 27.49C101.896 27.07 103.486 26.62 105.646 26.14C105.766 26.116 105.88 26.14 105.988 26.212C106.096 26.272 106.156 26.368 106.168 26.5L106.492 28.246C106.516 28.378 106.498 28.498 106.438 28.606C106.378 28.702 106.288 28.762 106.168 28.786C104.596 29.086 103.48 29.338 102.82 29.542C102.172 29.746 101.686 30.046 101.362 30.442C101.05 30.826 100.864 31.426 100.804 32.242C101.08 31.978 101.428 31.762 101.848 31.594C102.268 31.426 102.706 31.342 103.162 31.342C104.47 31.342 105.478 31.672 106.186 32.332C106.906 32.992 107.302 33.916 107.374 35.104ZM104.08 36.346C104.092 36.25 104.098 36.064 104.098 35.788C104.098 35.488 104.092 35.284 104.08 35.176C104.02 34 103.552 33.412 102.676 33.412C101.656 33.412 101.116 34 101.056 35.176L101.038 35.788L101.056 36.346C101.08 36.946 101.212 37.396 101.452 37.696C101.704 37.984 102.076 38.128 102.568 38.128C103.06 38.128 103.426 37.984 103.666 37.696C103.918 37.396 104.056 36.946 104.08 36.346ZM113.624 40.18C112.112 40.18 110.948 39.832 110.132 39.136C109.328 38.428 108.89 37.426 108.818 36.13C108.806 35.974 108.8 35.704 108.8 35.32C108.8 34.936 108.806 34.666 108.818 34.51C108.89 33.238 109.34 32.248 110.168 31.54C111.008 30.82 112.16 30.46 113.624 30.46C115.088 30.46 116.234 30.82 117.062 31.54C117.902 32.248 118.358 33.238 118.43 34.51C118.454 34.822 118.466 35.092 118.466 35.32C118.466 35.548 118.454 35.818 118.43 36.13C118.358 37.426 117.914 38.428 117.098 39.136C116.294 39.832 115.136 40.18 113.624 40.18ZM113.624 37.912C114.116 37.912 114.482 37.762 114.722 37.462C114.962 37.15 115.1 36.676 115.136 36.04C115.148 35.92 115.154 35.68 115.154 35.32C115.154 34.96 115.148 34.72 115.136 34.6C115.1 33.976 114.962 33.508 114.722 33.196C114.482 32.884 114.116 32.728 113.624 32.728C113.132 32.728 112.766 32.884 112.526 33.196C112.286 33.508 112.148 33.976 112.112 34.6L112.094 35.32L112.112 36.04C112.148 36.676 112.286 37.15 112.526 37.462C112.766 37.762 113.132 37.912 113.624 37.912ZM127.956 40.18C126.912 40.18 126.072 40.036 125.436 39.748C124.8 39.448 124.338 39.094 124.05 38.686C123.774 38.266 123.612 37.846 123.564 37.426V37.39C123.564 37.318 123.6 37.252 123.672 37.192C123.744 37.132 123.816 37.102 123.888 37.102H126.084C126.216 37.102 126.312 37.126 126.372 37.174C126.444 37.21 126.51 37.276 126.57 37.372C126.666 37.588 126.828 37.75 127.056 37.858C127.284 37.954 127.596 38.002 127.992 38.002C128.4 38.002 128.712 37.93 128.928 37.786C129.156 37.63 129.27 37.396 129.27 37.084C129.27 36.796 129.18 36.58 129 36.436C128.832 36.28 128.544 36.202 128.136 36.202H127.128C127.02 36.202 126.924 36.166 126.84 36.094C126.768 36.01 126.732 35.914 126.732 35.806V34.726C126.732 34.618 126.768 34.528 126.84 34.456C126.912 34.372 127.008 34.33 127.128 34.33H128.082C128.442 34.33 128.7 34.27 128.856 34.15C129.024 34.018 129.108 33.82 129.108 33.556C129.108 33.292 129.012 33.076 128.82 32.908C128.628 32.74 128.328 32.656 127.92 32.656C127.524 32.656 127.23 32.71 127.038 32.818C126.858 32.926 126.708 33.106 126.588 33.358C126.528 33.454 126.462 33.526 126.39 33.574C126.33 33.61 126.234 33.628 126.102 33.628H123.978C123.882 33.628 123.798 33.598 123.726 33.538C123.666 33.466 123.642 33.388 123.654 33.304C123.702 32.848 123.87 32.404 124.158 31.972C124.446 31.54 124.902 31.18 125.526 30.892C126.15 30.604 126.96 30.46 127.956 30.46C129.408 30.46 130.47 30.706 131.142 31.198C131.814 31.69 132.15 32.332 132.15 33.124C132.15 34.048 131.76 34.696 130.98 35.068C131.916 35.404 132.396 36.166 132.42 37.354C132.42 38.218 132.018 38.908 131.214 39.424C130.422 39.928 129.336 40.18 127.956 40.18ZM136.928 40.18C136.292 40.18 135.71 40.06 135.182 39.82C134.666 39.568 134.258 39.226 133.958 38.794C133.67 38.362 133.526 37.888 133.526 37.372C133.526 36.556 133.862 35.896 134.534 35.392C135.218 34.876 136.154 34.522 137.342 34.33L139.574 33.988V33.772C139.574 33.328 139.484 33.004 139.304 32.8C139.124 32.596 138.818 32.494 138.386 32.494C138.146 32.494 137.942 32.536 137.774 32.62C137.618 32.704 137.438 32.83 137.234 32.998C137.078 33.13 136.94 33.226 136.82 33.286C136.772 33.37 136.712 33.412 136.64 33.412H134.552C134.432 33.412 134.33 33.376 134.246 33.304C134.174 33.22 134.144 33.124 134.156 33.016C134.168 32.692 134.33 32.332 134.642 31.936C134.954 31.528 135.428 31.18 136.064 30.892C136.7 30.604 137.486 30.46 138.422 30.46C139.91 30.46 141.014 30.79 141.734 31.45C142.454 32.098 142.814 32.98 142.814 34.096V39.55C142.814 39.67 142.772 39.778 142.688 39.874C142.604 39.958 142.496 40 142.364 40H140.15C140.03 40 139.922 39.958 139.826 39.874C139.742 39.778 139.7 39.67 139.7 39.55V38.92C139.436 39.292 139.07 39.598 138.602 39.838C138.134 40.066 137.576 40.18 136.928 40.18ZM137.828 38.056C138.356 38.056 138.782 37.882 139.106 37.534C139.442 37.186 139.61 36.682 139.61 36.022V35.806L138.116 36.058C137.108 36.25 136.604 36.61 136.604 37.138C136.604 37.414 136.718 37.636 136.946 37.804C137.186 37.972 137.48 38.056 137.828 38.056ZM151.395 40C151.263 40 151.149 39.958 151.053 39.874C150.969 39.79 150.927 39.682 150.927 39.55V33.088H148.245C148.113 33.088 147.999 33.046 147.903 32.962C147.819 32.878 147.777 32.77 147.777 32.638V31.09C147.777 30.958 147.819 30.85 147.903 30.766C147.999 30.682 148.113 30.64 148.245 30.64H156.741C156.873 30.64 156.981 30.682 157.065 30.766C157.149 30.85 157.191 30.958 157.191 31.09V32.638C157.191 32.758 157.149 32.866 157.065 32.962C156.981 33.046 156.873 33.088 156.741 33.088H154.041V39.55C154.041 39.67 153.999 39.778 153.915 39.874C153.831 39.958 153.723 40 153.591 40H151.395ZM162.983 40.18C161.471 40.18 160.307 39.832 159.491 39.136C158.687 38.428 158.249 37.426 158.177 36.13C158.165 35.974 158.159 35.704 158.159 35.32C158.159 34.936 158.165 34.666 158.177 34.51C158.249 33.238 158.699 32.248 159.527 31.54C160.367 30.82 161.519 30.46 162.983 30.46C164.447 30.46 165.593 30.82 166.421 31.54C167.261 32.248 167.717 33.238 167.789 34.51C167.813 34.822 167.825 35.092 167.825 35.32C167.825 35.548 167.813 35.818 167.789 36.13C167.717 37.426 167.273 38.428 166.457 39.136C165.653 39.832 164.495 40.18 162.983 40.18ZM162.983 37.912C163.475 37.912 163.841 37.762 164.081 37.462C164.321 37.15 164.459 36.676 164.495 36.04C164.507 35.92 164.513 35.68 164.513 35.32C164.513 34.96 164.507 34.72 164.495 34.6C164.459 33.976 164.321 33.508 164.081 33.196C163.841 32.884 163.475 32.728 162.983 32.728C162.491 32.728 162.125 32.884 161.885 33.196C161.645 33.508 161.507 33.976 161.471 34.6L161.453 35.32L161.471 36.04C161.507 36.676 161.645 37.15 161.885 37.462C162.125 37.762 162.491 37.912 162.983 37.912ZM169.361 41.35C169.253 41.35 169.163 41.308 169.091 41.224C169.031 41.152 169.007 41.062 169.019 40.954L169.577 37.336C169.601 37.168 169.667 37.024 169.775 36.904C169.883 36.772 170.039 36.706 170.243 36.706H172.421C172.517 36.706 172.601 36.742 172.673 36.814C172.745 36.886 172.781 36.97 172.781 37.066C172.781 37.138 172.769 37.204 172.745 37.264L171.341 40.846C171.209 41.182 170.987 41.35 170.675 41.35H169.361ZM184.269 40C184.137 40 184.023 39.958 183.927 39.874C183.843 39.79 183.801 39.682 183.801 39.55V36.868C183.261 37.3 182.457 37.516 181.389 37.516C180.225 37.516 179.343 37.222 178.743 36.634C178.155 36.034 177.861 35.098 177.861 33.826V31.09C177.861 30.958 177.903 30.85 177.987 30.766C178.083 30.682 178.191 30.64 178.311 30.64H180.651C180.783 30.64 180.891 30.682 180.975 30.766C181.059 30.85 181.101 30.958 181.101 31.09V33.664C181.101 34.072 181.197 34.36 181.389 34.528C181.581 34.696 181.905 34.78 182.361 34.78C182.805 34.78 183.153 34.714 183.405 34.582C183.669 34.438 183.801 34.234 183.801 33.97V31.09C183.801 30.958 183.843 30.85 183.927 30.766C184.023 30.682 184.137 30.64 184.269 30.64H186.699C186.831 30.64 186.939 30.682 187.023 30.766C187.119 30.85 187.167 30.958 187.167 31.09V39.55C187.167 39.682 187.119 39.79 187.023 39.874C186.939 39.958 186.831 40 186.699 40H184.269ZM192.141 40C192.009 40 191.895 39.958 191.799 39.874C191.715 39.79 191.673 39.682 191.673 39.55V33.088H188.991C188.859 33.088 188.745 33.046 188.649 32.962C188.565 32.878 188.523 32.77 188.523 32.638V31.09C188.523 30.958 188.565 30.85 188.649 30.766C188.745 30.682 188.859 30.64 188.991 30.64H197.487C197.619 30.64 197.727 30.682 197.811 30.766C197.895 30.85 197.937 30.958 197.937 31.09V32.638C197.937 32.758 197.895 32.866 197.811 32.962C197.727 33.046 197.619 33.088 197.487 33.088H194.787V39.55C194.787 39.67 194.745 39.778 194.661 39.874C194.577 39.958 194.469 40 194.337 40H192.141ZM203.729 40.18C202.217 40.18 201.053 39.832 200.237 39.136C199.433 38.428 198.995 37.426 198.923 36.13C198.911 35.974 198.905 35.704 198.905 35.32C198.905 34.936 198.911 34.666 198.923 34.51C198.995 33.238 199.445 32.248 200.273 31.54C201.113 30.82 202.265 30.46 203.729 30.46C205.193 30.46 206.339 30.82 207.167 31.54C208.007 32.248 208.463 33.238 208.535 34.51C208.559 34.822 208.571 35.092 208.571 35.32C208.571 35.548 208.559 35.818 208.535 36.13C208.463 37.426 208.019 38.428 207.203 39.136C206.399 39.832 205.241 40.18 203.729 40.18ZM203.729 37.912C204.221 37.912 204.587 37.762 204.827 37.462C205.067 37.15 205.205 36.676 205.241 36.04C205.253 35.92 205.259 35.68 205.259 35.32C205.259 34.96 205.253 34.72 205.241 34.6C205.205 33.976 205.067 33.508 204.827 33.196C204.587 32.884 204.221 32.728 203.729 32.728C203.237 32.728 202.871 32.884 202.631 33.196C202.391 33.508 202.253 33.976 202.217 34.6L202.199 35.32L202.217 36.04C202.253 36.676 202.391 37.15 202.631 37.462C202.871 37.762 203.237 37.912 203.729 37.912ZM214.515 40C214.395 40 214.287 39.958 214.191 39.874C214.107 39.778 214.065 39.67 214.065 39.55V31.09C214.065 30.958 214.107 30.85 214.191 30.766C214.287 30.682 214.395 30.64 214.515 30.64H218.781C220.185 30.64 221.229 30.874 221.913 31.342C222.609 31.81 222.957 32.47 222.957 33.322C222.957 33.742 222.873 34.102 222.705 34.402C222.537 34.69 222.297 34.942 221.985 35.158C222.381 35.362 222.687 35.644 222.903 36.004C223.131 36.352 223.245 36.76 223.245 37.228C223.245 38.104 222.897 38.788 222.201 39.28C221.505 39.76 220.455 40 219.051 40H214.515ZM218.853 34.276C219.621 34.276 220.005 33.988 220.005 33.412C220.005 33.124 219.903 32.926 219.699 32.818C219.507 32.698 219.225 32.638 218.853 32.638H217.125V34.276H218.853ZM218.889 38.002C219.669 38.002 220.059 37.732 220.059 37.192C220.059 36.892 219.963 36.676 219.771 36.544C219.579 36.412 219.285 36.346 218.889 36.346H217.125V38.002H218.889ZM225.501 40C225.381 40 225.273 39.958 225.177 39.874C225.093 39.778 225.051 39.67 225.051 39.55V31.09C225.051 30.958 225.093 30.85 225.177 30.766C225.273 30.682 225.381 30.64 225.501 30.64H227.769C227.901 30.64 228.009 30.682 228.093 30.766C228.177 30.85 228.219 30.958 228.219 31.09V33.502H229.839C231.039 33.502 231.975 33.796 232.647 34.384C233.331 34.96 233.673 35.758 233.673 36.778C233.673 37.822 233.325 38.62 232.629 39.172C231.945 39.724 230.985 40 229.749 40H225.501ZM235.203 40C235.083 40 234.975 39.958 234.879 39.874C234.795 39.778 234.753 39.67 234.753 39.55V31.09C234.753 30.958 234.795 30.85 234.879 30.766C234.975 30.682 235.083 30.64 235.203 30.64H237.453C237.585 30.64 237.693 30.682 237.777 30.766C237.873 30.85 237.921 30.958 237.921 31.09V39.55C237.921 39.682 237.873 39.79 237.777 39.874C237.693 39.958 237.585 40 237.453 40H235.203ZM229.569 37.858C230.013 37.858 230.337 37.774 230.541 37.606C230.745 37.438 230.847 37.162 230.847 36.778C230.847 36.394 230.745 36.106 230.541 35.914C230.337 35.722 230.013 35.626 229.569 35.626H228.165V37.858H229.569ZM248.198 40.18C246.83 40.18 245.72 39.82 244.868 39.1C244.028 38.368 243.578 37.354 243.518 36.058L243.5 35.338L243.518 34.6C243.566 33.304 244.016 32.29 244.868 31.558C245.72 30.826 246.83 30.46 248.198 30.46C249.242 30.46 250.118 30.646 250.826 31.018C251.534 31.39 252.062 31.834 252.41 32.35C252.758 32.854 252.944 33.316 252.968 33.736C252.98 33.868 252.938 33.982 252.842 34.078C252.746 34.162 252.632 34.204 252.5 34.204H250.088C249.956 34.204 249.854 34.174 249.782 34.114C249.71 34.054 249.644 33.958 249.584 33.826C249.452 33.49 249.278 33.244 249.062 33.088C248.858 32.932 248.594 32.854 248.27 32.854C247.346 32.854 246.866 33.466 246.83 34.69L246.812 35.374L246.83 35.968C246.842 36.592 246.968 37.054 247.208 37.354C247.448 37.642 247.802 37.786 248.27 37.786C248.618 37.786 248.888 37.714 249.08 37.57C249.284 37.414 249.452 37.162 249.584 36.814C249.644 36.682 249.71 36.586 249.782 36.526C249.854 36.466 249.956 36.436 250.088 36.436H252.5C252.62 36.436 252.728 36.478 252.824 36.562C252.92 36.646 252.968 36.748 252.968 36.868C252.968 37.24 252.8 37.69 252.464 38.218C252.14 38.734 251.618 39.19 250.898 39.586C250.178 39.982 249.278 40.18 248.198 40.18ZM258.742 40C258.622 40 258.514 39.958 258.418 39.874C258.334 39.778 258.292 39.67 258.292 39.55V31.09C258.292 30.958 258.334 30.85 258.418 30.766C258.514 30.682 258.622 30.64 258.742 30.64H260.992C261.124 30.64 261.232 30.682 261.316 30.766C261.412 30.85 261.46 30.958 261.46 31.09V34.024H264.52V31.09C264.52 30.958 264.562 30.85 264.646 30.766C264.742 30.682 264.856 30.64 264.988 30.64H267.238C267.37 30.64 267.478 30.682 267.562 30.766C267.646 30.85 267.688 30.958 267.688 31.09V39.55C267.688 39.67 267.646 39.778 267.562 39.874C267.478 39.958 267.37 40 267.238 40H264.988C264.856 40 264.742 39.958 264.646 39.874C264.562 39.79 264.52 39.682 264.52 39.55V36.472H261.46V39.55C261.46 39.682 261.412 39.79 261.316 39.874C261.232 39.958 261.124 40 260.992 40H258.742ZM272.649 40.18C272.013 40.18 271.431 40.06 270.903 39.82C270.387 39.568 269.979 39.226 269.679 38.794C269.391 38.362 269.247 37.888 269.247 37.372C269.247 36.556 269.583 35.896 270.255 35.392C270.939 34.876 271.875 34.522 273.063 34.33L275.295 33.988V33.772C275.295 33.328 275.205 33.004 275.025 32.8C274.845 32.596 274.539 32.494 274.107 32.494C273.867 32.494 273.663 32.536 273.495 32.62C273.339 32.704 273.159 32.83 272.955 32.998C272.799 33.13 272.661 33.226 272.541 33.286C272.493 33.37 272.433 33.412 272.361 33.412H270.273C270.153 33.412 270.051 33.376 269.967 33.304C269.895 33.22 269.865 33.124 269.877 33.016C269.889 32.692 270.051 32.332 270.363 31.936C270.675 31.528 271.149 31.18 271.785 30.892C272.421 30.604 273.207 30.46 274.143 30.46C275.631 30.46 276.735 30.79 277.455 31.45C278.175 32.098 278.535 32.98 278.535 34.096V39.55C278.535 39.67 278.493 39.778 278.409 39.874C278.325 39.958 278.217 40 278.085 40H275.871C275.751 40 275.643 39.958 275.547 39.874C275.463 39.778 275.421 39.67 275.421 39.55V38.92C275.157 39.292 274.791 39.598 274.323 39.838C273.855 40.066 273.297 40.18 272.649 40.18ZM273.549 38.056C274.077 38.056 274.503 37.882 274.827 37.534C275.163 37.186 275.331 36.682 275.331 36.022V35.806L273.837 36.058C272.829 36.25 272.325 36.61 272.325 37.138C272.325 37.414 272.439 37.636 272.667 37.804C272.907 37.972 273.201 38.056 273.549 38.056ZM291.095 30.64C291.191 30.64 291.275 30.676 291.347 30.748C291.419 30.82 291.455 30.904 291.455 31V39.622C291.455 39.73 291.419 39.82 291.347 39.892C291.275 39.964 291.185 40 291.077 40H288.719C288.611 40 288.521 39.964 288.449 39.892C288.377 39.82 288.341 39.73 288.341 39.622V35.644L286.865 38.218C286.793 38.35 286.715 38.452 286.631 38.524C286.559 38.584 286.463 38.614 286.343 38.614H285.605C285.389 38.614 285.209 38.482 285.065 38.218L283.589 35.662V39.622C283.589 39.73 283.553 39.82 283.481 39.892C283.409 39.964 283.325 40 283.229 40H280.871C280.763 40 280.673 39.964 280.601 39.892C280.529 39.82 280.493 39.73 280.493 39.622V31C280.493 30.904 280.529 30.82 280.601 30.748C280.673 30.676 280.757 30.64 280.853 30.64H283.049C283.265 30.64 283.439 30.748 283.571 30.964L285.965 35.212L288.377 30.964C288.509 30.748 288.683 30.64 288.899 30.64H291.095ZM302.787 30.64C302.907 30.64 303.009 30.682 303.093 30.766C303.189 30.85 303.237 30.952 303.237 31.072V39.55C303.237 39.67 303.195 39.778 303.111 39.874C303.027 39.958 302.919 40 302.787 40H300.537C300.405 40 300.291 39.958 300.195 39.874C300.111 39.79 300.069 39.682 300.069 39.55V34.672L296.559 39.712C296.427 39.904 296.259 40 296.055 40H294.039C293.919 40 293.811 39.958 293.715 39.874C293.631 39.778 293.589 39.67 293.589 39.55V31.09C293.589 30.958 293.631 30.85 293.715 30.766C293.811 30.682 293.919 30.64 294.039 30.64H296.289C296.421 30.64 296.529 30.682 296.613 30.766C296.709 30.85 296.757 30.958 296.757 31.09V35.968L300.267 30.928C300.399 30.736 300.567 30.64 300.771 30.64H302.787ZM305.498 40C305.366 40 305.252 39.958 305.156 39.874C305.072 39.79 305.03 39.682 305.03 39.55V37.174C305.03 37.042 305.072 36.934 305.156 36.85C305.252 36.754 305.366 36.706 305.498 36.706H307.874C308.006 36.706 308.114 36.754 308.198 36.85C308.282 36.934 308.324 37.042 308.324 37.174V39.55C308.324 39.67 308.282 39.778 308.198 39.874C308.114 39.958 308.006 40 307.874 40H305.498ZM46.444 67.18C44.728 67.18 43.378 66.766 42.394 65.938C41.422 65.11 40.906 63.898 40.846 62.302C40.834 61.978 40.828 61.45 40.828 60.718C40.828 59.974 40.834 59.434 40.846 59.098C40.906 57.538 41.428 56.338 42.412 55.498C43.408 54.646 44.752 54.22 46.444 54.22C47.512 54.22 48.466 54.394 49.306 54.742C50.158 55.09 50.83 55.594 51.322 56.254C51.814 56.914 52.072 57.694 52.096 58.594C52.096 58.702 52.054 58.792 51.97 58.864C51.898 58.936 51.808 58.972 51.7 58.972H49.144C48.976 58.972 48.85 58.942 48.766 58.882C48.694 58.81 48.628 58.684 48.568 58.504C48.4 57.916 48.142 57.508 47.794 57.28C47.458 57.04 47.008 56.92 46.444 56.92C45.088 56.92 44.386 57.676 44.338 59.188C44.326 59.512 44.32 60.01 44.32 60.682C44.32 61.354 44.326 61.864 44.338 62.212C44.386 63.724 45.088 64.48 46.444 64.48C46.996 64.48 47.446 64.36 47.794 64.12C48.154 63.88 48.412 63.472 48.568 62.896C48.616 62.716 48.682 62.596 48.766 62.536C48.85 62.464 48.976 62.428 49.144 62.428H51.7C51.808 62.428 51.898 62.464 51.97 62.536C52.054 62.608 52.096 62.698 52.096 62.806C52.072 63.706 51.814 64.486 51.322 65.146C50.83 65.806 50.158 66.31 49.306 66.658C48.466 67.006 47.512 67.18 46.444 67.18ZM58.127 67.18C56.663 67.18 55.511 66.79 54.671 66.01C53.831 65.218 53.399 64.072 53.375 62.572V62.014C53.423 60.586 53.867 59.47 54.707 58.666C55.547 57.862 56.681 57.46 58.109 57.46C59.141 57.46 60.011 57.67 60.719 58.09C61.439 58.498 61.973 59.068 62.321 59.8C62.681 60.52 62.861 61.342 62.861 62.266V62.716C62.861 62.848 62.813 62.962 62.717 63.058C62.633 63.142 62.525 63.184 62.393 63.184H56.687V63.292C56.699 63.832 56.825 64.27 57.065 64.606C57.305 64.93 57.647 65.092 58.091 65.092C58.379 65.092 58.607 65.038 58.775 64.93C58.955 64.81 59.123 64.66 59.279 64.48C59.387 64.36 59.471 64.288 59.531 64.264C59.603 64.228 59.711 64.21 59.855 64.21H62.213C62.321 64.21 62.411 64.246 62.483 64.318C62.567 64.378 62.609 64.456 62.609 64.552C62.609 64.864 62.429 65.23 62.069 65.65C61.721 66.07 61.205 66.43 60.521 66.73C59.849 67.03 59.051 67.18 58.127 67.18ZM59.549 61.348V61.312C59.549 60.736 59.423 60.292 59.171 59.98C58.919 59.656 58.565 59.494 58.109 59.494C57.653 59.494 57.299 59.656 57.047 59.98C56.807 60.292 56.687 60.736 56.687 61.312V61.348H59.549ZM64.9252 67C64.8052 67 64.6972 66.958 64.6012 66.874C64.5172 66.778 64.4752 66.67 64.4752 66.55V58.09C64.4752 57.958 64.5172 57.85 64.6012 57.766C64.6972 57.682 64.8052 57.64 64.9252 57.64H69.1912C70.5952 57.64 71.6392 57.874 72.3232 58.342C73.0192 58.81 73.3672 59.47 73.3672 60.322C73.3672 60.742 73.2832 61.102 73.1152 61.402C72.9472 61.69 72.7072 61.942 72.3952 62.158C72.7912 62.362 73.0972 62.644 73.3132 63.004C73.5412 63.352 73.6552 63.76 73.6552 64.228C73.6552 65.104 73.3072 65.788 72.6112 66.28C71.9152 66.76 70.8652 67 69.4612 67H64.9252ZM69.2632 61.276C70.0312 61.276 70.4152 60.988 70.4152 60.412C70.4152 60.124 70.3132 59.926 70.1092 59.818C69.9172 59.698 69.6352 59.638 69.2632 59.638H67.5352V61.276H69.2632ZM69.2992 65.002C70.0792 65.002 70.4692 64.732 70.4692 64.192C70.4692 63.892 70.3732 63.676 70.1812 63.544C69.9892 63.412 69.6952 63.346 69.2992 63.346H67.5352V65.002H69.2992ZM79.8535 67.18C78.3895 67.18 77.2375 66.79 76.3975 66.01C75.5575 65.218 75.1255 64.072 75.1015 62.572V62.014C75.1495 60.586 75.5935 59.47 76.4335 58.666C77.2735 57.862 78.4075 57.46 79.8355 57.46C80.8675 57.46 81.7375 57.67 82.4455 58.09C83.1655 58.498 83.6995 59.068 84.0475 59.8C84.4075 60.52 84.5875 61.342 84.5875 62.266V62.716C84.5875 62.848 84.5395 62.962 84.4435 63.058C84.3595 63.142 84.2515 63.184 84.1195 63.184H78.4135V63.292C78.4255 63.832 78.5515 64.27 78.7915 64.606C79.0315 64.93 79.3735 65.092 79.8175 65.092C80.1055 65.092 80.3335 65.038 80.5015 64.93C80.6815 64.81 80.8495 64.66 81.0055 64.48C81.1135 64.36 81.1975 64.288 81.2575 64.264C81.3295 64.228 81.4375 64.21 81.5815 64.21H83.9395C84.0475 64.21 84.1375 64.246 84.2095 64.318C84.2935 64.378 84.3355 64.456 84.3355 64.552C84.3355 64.864 84.1555 65.23 83.7955 65.65C83.4475 66.07 82.9315 66.43 82.2475 66.73C81.5755 67.03 80.7775 67.18 79.8535 67.18ZM81.2755 61.348V61.312C81.2755 60.736 81.1495 60.292 80.8975 59.98C80.6455 59.656 80.2915 59.494 79.8355 59.494C79.3795 59.494 79.0255 59.656 78.7735 59.98C78.5335 60.292 78.4135 60.736 78.4135 61.312V61.348H81.2755ZM86.6698 70.42C86.5378 70.42 86.4238 70.378 86.3278 70.294C86.2438 70.21 86.2018 70.102 86.2018 69.97V58.09C86.2018 57.958 86.2438 57.85 86.3278 57.766C86.4238 57.682 86.5378 57.64 86.6698 57.64H88.8118C88.9438 57.64 89.0518 57.682 89.1358 57.766C89.2198 57.85 89.2618 57.958 89.2618 58.09V58.738C89.9098 57.886 90.8398 57.46 92.0518 57.46C93.2158 57.46 94.1278 57.826 94.7878 58.558C95.4598 59.278 95.8198 60.31 95.8678 61.654C95.8798 61.81 95.8858 62.032 95.8858 62.32C95.8858 62.608 95.8798 62.836 95.8678 63.004C95.8198 64.3 95.4598 65.32 94.7878 66.064C94.1158 66.808 93.2038 67.18 92.0518 67.18C90.8878 67.18 90.0178 66.784 89.4418 65.992V69.97C89.4418 70.102 89.3998 70.21 89.3158 70.294C89.2318 70.378 89.1238 70.42 88.9918 70.42H86.6698ZM91.0078 64.678C91.5478 64.678 91.9318 64.522 92.1598 64.21C92.3998 63.886 92.5378 63.442 92.5738 62.878C92.5858 62.758 92.5918 62.572 92.5918 62.32C92.5918 62.068 92.5858 61.882 92.5738 61.762C92.5378 61.198 92.3998 60.76 92.1598 60.448C91.9318 60.124 91.5478 59.962 91.0078 59.962C90.4918 59.962 90.1078 60.13 89.8558 60.466C89.6038 60.79 89.4658 61.204 89.4418 61.708C89.4298 61.864 89.4238 62.092 89.4238 62.392C89.4238 62.68 89.4298 62.902 89.4418 63.058C89.4658 63.526 89.6038 63.916 89.8558 64.228C90.1198 64.528 90.5038 64.678 91.0078 64.678ZM105.998 57.64C106.13 57.64 106.238 57.682 106.322 57.766C106.406 57.85 106.448 57.958 106.448 58.09V66.55C106.448 66.67 106.406 66.778 106.322 66.874C106.238 66.958 106.13 67 105.998 67H103.676C103.544 67 103.43 66.958 103.334 66.874C103.25 66.79 103.208 66.682 103.208 66.55V64.03H101.984L100.526 66.73C100.442 66.91 100.304 67 100.112 67H97.844C97.724 67 97.628 66.964 97.556 66.892C97.484 66.82 97.448 66.736 97.448 66.64C97.448 66.544 97.478 66.46 97.538 66.388L99.32 63.436C98.816 63.172 98.432 62.818 98.168 62.374C97.904 61.93 97.772 61.408 97.772 60.808C97.772 59.788 98.108 59.008 98.78 58.468C99.464 57.916 100.412 57.64 101.624 57.64H105.998ZM103.28 59.782H101.804C101.384 59.782 101.072 59.866 100.868 60.034C100.676 60.19 100.58 60.448 100.58 60.808C100.58 61.144 100.676 61.408 100.868 61.6C101.072 61.792 101.366 61.888 101.75 61.888H103.28V59.782ZM109.046 67C108.926 67 108.818 66.958 108.722 66.874C108.638 66.778 108.596 66.67 108.596 66.55V58.09C108.596 57.958 108.638 57.85 108.722 57.766C108.818 57.682 108.926 57.64 109.046 57.64H111.296C111.428 57.64 111.536 57.682 111.62 57.766C111.716 57.85 111.764 57.958 111.764 58.09V61.024H114.824V58.09C114.824 57.958 114.866 57.85 114.95 57.766C115.046 57.682 115.16 57.64 115.292 57.64H117.542C117.674 57.64 117.782 57.682 117.866 57.766C117.95 57.85 117.992 57.958 117.992 58.09V66.55C117.992 66.67 117.95 66.778 117.866 66.874C117.782 66.958 117.674 67 117.542 67H115.292C115.16 67 115.046 66.958 114.95 66.874C114.866 66.79 114.824 66.682 114.824 66.55V63.472H111.764V66.55C111.764 66.682 111.716 66.79 111.62 66.874C111.536 66.958 111.428 67 111.296 67H109.046ZM124.628 67.18C123.116 67.18 121.952 66.832 121.136 66.136C120.332 65.428 119.894 64.426 119.822 63.13C119.81 62.974 119.804 62.704 119.804 62.32C119.804 61.936 119.81 61.666 119.822 61.51C119.894 60.238 120.344 59.248 121.172 58.54C122.012 57.82 123.164 57.46 124.628 57.46C126.092 57.46 127.238 57.82 128.066 58.54C128.906 59.248 129.362 60.238 129.434 61.51C129.458 61.822 129.47 62.092 129.47 62.32C129.47 62.548 129.458 62.818 129.434 63.13C129.362 64.426 128.918 65.428 128.102 66.136C127.298 66.832 126.14 67.18 124.628 67.18ZM124.628 64.912C125.12 64.912 125.486 64.762 125.726 64.462C125.966 64.15 126.104 63.676 126.14 63.04C126.152 62.92 126.158 62.68 126.158 62.32C126.158 61.96 126.152 61.72 126.14 61.6C126.104 60.976 125.966 60.508 125.726 60.196C125.486 59.884 125.12 59.728 124.628 59.728C124.136 59.728 123.77 59.884 123.53 60.196C123.29 60.508 123.152 60.976 123.116 61.6L123.098 62.32L123.116 63.04C123.152 63.676 123.29 64.15 123.53 64.462C123.77 64.762 124.136 64.912 124.628 64.912ZM137.142 67C137.01 67 136.896 66.958 136.8 66.874C136.716 66.79 136.674 66.682 136.674 66.55V63.868C136.134 64.3 135.33 64.516 134.262 64.516C133.098 64.516 132.216 64.222 131.616 63.634C131.028 63.034 130.734 62.098 130.734 60.826V58.09C130.734 57.958 130.776 57.85 130.86 57.766C130.956 57.682 131.064 57.64 131.184 57.64H133.524C133.656 57.64 133.764 57.682 133.848 57.766C133.932 57.85 133.974 57.958 133.974 58.09V60.664C133.974 61.072 134.07 61.36 134.262 61.528C134.454 61.696 134.778 61.78 135.234 61.78C135.678 61.78 136.026 61.714 136.278 61.582C136.542 61.438 136.674 61.234 136.674 60.97V58.09C136.674 57.958 136.716 57.85 136.8 57.766C136.896 57.682 137.01 57.64 137.142 57.64H139.572C139.704 57.64 139.812 57.682 139.896 57.766C139.992 57.85 140.04 57.958 140.04 58.09V66.55C140.04 66.682 139.992 66.79 139.896 66.874C139.812 66.958 139.704 67 139.572 67H137.142ZM151.765 66.388C151.813 66.448 151.837 66.526 151.837 66.622C151.837 66.73 151.801 66.82 151.729 66.892C151.657 66.964 151.561 67 151.441 67H148.759C148.543 67 148.369 66.904 148.237 66.712L146.185 63.49H145.285V66.55C145.285 66.67 145.243 66.778 145.159 66.874C145.075 66.958 144.967 67 144.835 67H142.621C142.501 67 142.393 66.958 142.297 66.874C142.213 66.778 142.171 66.67 142.171 66.55V58.09C142.171 57.958 142.213 57.85 142.297 57.766C142.393 57.682 142.501 57.64 142.621 57.64H144.835C144.967 57.64 145.075 57.682 145.159 57.766C145.243 57.85 145.285 57.958 145.285 58.09V61.024H146.221L148.111 57.928C148.243 57.736 148.411 57.64 148.615 57.64H151.027C151.147 57.64 151.243 57.676 151.315 57.748C151.399 57.82 151.441 57.91 151.441 58.018C151.441 58.066 151.411 58.15 151.351 58.27L148.921 62.194L151.765 66.388ZM156.036 67.18C155.4 67.18 154.818 67.06 154.29 66.82C153.774 66.568 153.366 66.226 153.066 65.794C152.778 65.362 152.634 64.888 152.634 64.372C152.634 63.556 152.97 62.896 153.642 62.392C154.326 61.876 155.262 61.522 156.45 61.33L158.682 60.988V60.772C158.682 60.328 158.592 60.004 158.412 59.8C158.232 59.596 157.926 59.494 157.494 59.494C157.254 59.494 157.05 59.536 156.882 59.62C156.726 59.704 156.546 59.83 156.342 59.998C156.186 60.13 156.048 60.226 155.928 60.286C155.88 60.37 155.82 60.412 155.748 60.412H153.66C153.54 60.412 153.438 60.376 153.354 60.304C153.282 60.22 153.252 60.124 153.264 60.016C153.276 59.692 153.438 59.332 153.75 58.936C154.062 58.528 154.536 58.18 155.172 57.892C155.808 57.604 156.594 57.46 157.53 57.46C159.018 57.46 160.122 57.79 160.842 58.45C161.562 59.098 161.922 59.98 161.922 61.096V66.55C161.922 66.67 161.88 66.778 161.796 66.874C161.712 66.958 161.604 67 161.472 67H159.258C159.138 67 159.03 66.958 158.934 66.874C158.85 66.778 158.808 66.67 158.808 66.55V65.92C158.544 66.292 158.178 66.598 157.71 66.838C157.242 67.066 156.684 67.18 156.036 67.18ZM156.936 65.056C157.464 65.056 157.89 64.882 158.214 64.534C158.55 64.186 158.718 63.682 158.718 63.022V62.806L157.224 63.058C156.216 63.25 155.712 63.61 155.712 64.138C155.712 64.414 155.826 64.636 156.054 64.804C156.294 64.972 156.588 65.056 156.936 65.056ZM163.772 68.35C163.664 68.35 163.574 68.308 163.502 68.224C163.442 68.152 163.418 68.062 163.43 67.954L163.988 64.336C164.012 64.168 164.078 64.024 164.186 63.904C164.294 63.772 164.45 63.706 164.654 63.706H166.832C166.928 63.706 167.012 63.742 167.084 63.814C167.156 63.886 167.192 63.97 167.192 64.066C167.192 64.138 167.18 64.204 167.156 64.264L165.752 67.846C165.62 68.182 165.398 68.35 165.086 68.35H163.772ZM173.171 67C173.051 67 172.943 66.958 172.847 66.874C172.763 66.778 172.721 66.67 172.721 66.55V58.09C172.721 57.958 172.763 57.85 172.847 57.766C172.943 57.682 173.051 57.64 173.171 57.64H177.437C178.841 57.64 179.885 57.874 180.569 58.342C181.265 58.81 181.613 59.47 181.613 60.322C181.613 60.742 181.529 61.102 181.361 61.402C181.193 61.69 180.953 61.942 180.641 62.158C181.037 62.362 181.343 62.644 181.559 63.004C181.787 63.352 181.901 63.76 181.901 64.228C181.901 65.104 181.553 65.788 180.857 66.28C180.161 66.76 179.111 67 177.707 67H173.171ZM177.509 61.276C178.277 61.276 178.661 60.988 178.661 60.412C178.661 60.124 178.559 59.926 178.355 59.818C178.163 59.698 177.881 59.638 177.509 59.638H175.781V61.276H177.509ZM177.545 65.002C178.325 65.002 178.715 64.732 178.715 64.192C178.715 63.892 178.619 63.676 178.427 63.544C178.235 63.412 177.941 63.346 177.545 63.346H175.781V65.002H177.545ZM188.1 67.18C186.636 67.18 185.484 66.79 184.644 66.01C183.804 65.218 183.372 64.072 183.348 62.572V62.014C183.396 60.586 183.84 59.47 184.68 58.666C185.52 57.862 186.654 57.46 188.082 57.46C189.114 57.46 189.984 57.67 190.692 58.09C191.412 58.498 191.946 59.068 192.294 59.8C192.654 60.52 192.834 61.342 192.834 62.266V62.716C192.834 62.848 192.786 62.962 192.69 63.058C192.606 63.142 192.498 63.184 192.366 63.184H186.66V63.292C186.672 63.832 186.798 64.27 187.038 64.606C187.278 64.93 187.62 65.092 188.064 65.092C188.352 65.092 188.58 65.038 188.748 64.93C188.928 64.81 189.096 64.66 189.252 64.48C189.36 64.36 189.444 64.288 189.504 64.264C189.576 64.228 189.684 64.21 189.828 64.21H192.186C192.294 64.21 192.384 64.246 192.456 64.318C192.54 64.378 192.582 64.456 192.582 64.552C192.582 64.864 192.402 65.23 192.042 65.65C191.694 66.07 191.178 66.43 190.494 66.73C189.822 67.03 189.024 67.18 188.1 67.18ZM189.522 61.348V61.312C189.522 60.736 189.396 60.292 189.144 59.98C188.892 59.656 188.538 59.494 188.082 59.494C187.626 59.494 187.272 59.656 187.02 59.98C186.78 60.292 186.66 60.736 186.66 61.312V61.348H189.522ZM198.444 67.18C197.4 67.18 196.56 67.036 195.924 66.748C195.288 66.448 194.826 66.094 194.538 65.686C194.262 65.266 194.1 64.846 194.052 64.426V64.39C194.052 64.318 194.088 64.252 194.16 64.192C194.232 64.132 194.304 64.102 194.376 64.102H196.572C196.704 64.102 196.8 64.126 196.86 64.174C196.932 64.21 196.998 64.276 197.058 64.372C197.154 64.588 197.316 64.75 197.544 64.858C197.772 64.954 198.084 65.002 198.48 65.002C198.888 65.002 199.2 64.93 199.416 64.786C199.644 64.63 199.758 64.396 199.758 64.084C199.758 63.796 199.668 63.58 199.488 63.436C199.32 63.28 199.032 63.202 198.624 63.202H197.616C197.508 63.202 197.412 63.166 197.328 63.094C197.256 63.01 197.22 62.914 197.22 62.806V61.726C197.22 61.618 197.256 61.528 197.328 61.456C197.4 61.372 197.496 61.33 197.616 61.33H198.57C198.93 61.33 199.188 61.27 199.344 61.15C199.512 61.018 199.596 60.82 199.596 60.556C199.596 60.292 199.5 60.076 199.308 59.908C199.116 59.74 198.816 59.656 198.408 59.656C198.012 59.656 197.718 59.71 197.526 59.818C197.346 59.926 197.196 60.106 197.076 60.358C197.016 60.454 196.95 60.526 196.878 60.574C196.818 60.61 196.722 60.628 196.59 60.628H194.466C194.37 60.628 194.286 60.598 194.214 60.538C194.154 60.466 194.13 60.388 194.142 60.304C194.19 59.848 194.358 59.404 194.646 58.972C194.934 58.54 195.39 58.18 196.014 57.892C196.638 57.604 197.448 57.46 198.444 57.46C199.896 57.46 200.958 57.706 201.63 58.198C202.302 58.69 202.638 59.332 202.638 60.124C202.638 61.048 202.248 61.696 201.468 62.068C202.404 62.404 202.884 63.166 202.908 64.354C202.908 65.218 202.506 65.908 201.702 66.424C200.91 66.928 199.824 67.18 198.444 67.18ZM208.982 67.18C207.518 67.18 206.366 66.79 205.526 66.01C204.686 65.218 204.254 64.072 204.23 62.572V62.014C204.278 60.586 204.722 59.47 205.562 58.666C206.402 57.862 207.536 57.46 208.964 57.46C209.996 57.46 210.866 57.67 211.574 58.09C212.294 58.498 212.828 59.068 213.176 59.8C213.536 60.52 213.716 61.342 213.716 62.266V62.716C213.716 62.848 213.668 62.962 213.572 63.058C213.488 63.142 213.38 63.184 213.248 63.184H207.542V63.292C207.554 63.832 207.68 64.27 207.92 64.606C208.16 64.93 208.502 65.092 208.946 65.092C209.234 65.092 209.462 65.038 209.63 64.93C209.81 64.81 209.978 64.66 210.134 64.48C210.242 64.36 210.326 64.288 210.386 64.264C210.458 64.228 210.566 64.21 210.71 64.21H213.068C213.176 64.21 213.266 64.246 213.338 64.318C213.422 64.378 213.464 64.456 213.464 64.552C213.464 64.864 213.284 65.23 212.924 65.65C212.576 66.07 212.06 66.43 211.376 66.73C210.704 67.03 209.906 67.18 208.982 67.18ZM210.404 61.348V61.312C210.404 60.736 210.278 60.292 210.026 59.98C209.774 59.656 209.42 59.494 208.964 59.494C208.508 59.494 208.154 59.656 207.902 59.98C207.662 60.292 207.542 60.736 207.542 61.312V61.348H210.404ZM218.175 67C218.043 67 217.929 66.958 217.833 66.874C217.749 66.79 217.707 66.682 217.707 66.55V60.088H215.025C214.893 60.088 214.779 60.046 214.683 59.962C214.599 59.878 214.557 59.77 214.557 59.638V58.09C214.557 57.958 214.599 57.85 214.683 57.766C214.779 57.682 214.893 57.64 215.025 57.64H223.521C223.653 57.64 223.761 57.682 223.845 57.766C223.929 57.85 223.971 57.958 223.971 58.09V59.638C223.971 59.758 223.929 59.866 223.845 59.962C223.761 60.046 223.653 60.088 223.521 60.088H220.821V66.55C220.821 66.67 220.779 66.778 220.695 66.874C220.611 66.958 220.503 67 220.371 67H218.175ZM229.492 67C229.372 67 229.264 66.958 229.168 66.874C229.084 66.778 229.042 66.67 229.042 66.55V58.09C229.042 57.958 229.084 57.85 229.168 57.766C229.264 57.682 229.372 57.64 229.492 57.64H233.758C235.162 57.64 236.206 57.874 236.89 58.342C237.586 58.81 237.934 59.47 237.934 60.322C237.934 60.742 237.85 61.102 237.682 61.402C237.514 61.69 237.274 61.942 236.962 62.158C237.358 62.362 237.664 62.644 237.88 63.004C238.108 63.352 238.222 63.76 238.222 64.228C238.222 65.104 237.874 65.788 237.178 66.28C236.482 66.76 235.432 67 234.028 67H229.492ZM233.83 61.276C234.598 61.276 234.982 60.988 234.982 60.412C234.982 60.124 234.88 59.926 234.676 59.818C234.484 59.698 234.202 59.638 233.83 59.638H232.102V61.276H233.83ZM233.866 65.002C234.646 65.002 235.036 64.732 235.036 64.192C235.036 63.892 234.94 63.676 234.748 63.544C234.556 63.412 234.262 63.346 233.866 63.346H232.102V65.002H233.866ZM244.384 67.18C243.016 67.18 241.906 66.82 241.054 66.1C240.214 65.368 239.764 64.354 239.704 63.058L239.686 62.338L239.704 61.6C239.752 60.304 240.202 59.29 241.054 58.558C241.906 57.826 243.016 57.46 244.384 57.46C245.428 57.46 246.304 57.646 247.012 58.018C247.72 58.39 248.248 58.834 248.596 59.35C248.944 59.854 249.13 60.316 249.154 60.736C249.166 60.868 249.124 60.982 249.028 61.078C248.932 61.162 248.818 61.204 248.686 61.204H246.274C246.142 61.204 246.04 61.174 245.968 61.114C245.896 61.054 245.83 60.958 245.77 60.826C245.638 60.49 245.464 60.244 245.248 60.088C245.044 59.932 244.78 59.854 244.456 59.854C243.532 59.854 243.052 60.466 243.016 61.69L242.998 62.374L243.016 62.968C243.028 63.592 243.154 64.054 243.394 64.354C243.634 64.642 243.988 64.786 244.456 64.786C244.804 64.786 245.074 64.714 245.266 64.57C245.47 64.414 245.638 64.162 245.77 63.814C245.83 63.682 245.896 63.586 245.968 63.526C246.04 63.466 246.142 63.436 246.274 63.436H248.686C248.806 63.436 248.914 63.478 249.01 63.562C249.106 63.646 249.154 63.748 249.154 63.868C249.154 64.24 248.986 64.69 248.65 65.218C248.326 65.734 247.804 66.19 247.084 66.586C246.364 66.982 245.464 67.18 244.384 67.18ZM255.09 67.18C253.626 67.18 252.474 66.79 251.634 66.01C250.794 65.218 250.362 64.072 250.338 62.572V62.014C250.386 60.586 250.83 59.47 251.67 58.666C252.51 57.862 253.644 57.46 255.072 57.46C256.104 57.46 256.974 57.67 257.682 58.09C258.402 58.498 258.936 59.068 259.284 59.8C259.644 60.52 259.824 61.342 259.824 62.266V62.716C259.824 62.848 259.776 62.962 259.68 63.058C259.596 63.142 259.488 63.184 259.356 63.184H253.65V63.292C253.662 63.832 253.788 64.27 254.028 64.606C254.268 64.93 254.61 65.092 255.054 65.092C255.342 65.092 255.57 65.038 255.738 64.93C255.918 64.81 256.086 64.66 256.242 64.48C256.35 64.36 256.434 64.288 256.494 64.264C256.566 64.228 256.674 64.21 256.818 64.21H259.176C259.284 64.21 259.374 64.246 259.446 64.318C259.53 64.378 259.572 64.456 259.572 64.552C259.572 64.864 259.392 65.23 259.032 65.65C258.684 66.07 258.168 66.43 257.484 66.73C256.812 67.03 256.014 67.18 255.09 67.18ZM256.512 61.348V61.312C256.512 60.736 256.386 60.292 256.134 59.98C255.882 59.656 255.528 59.494 255.072 59.494C254.616 59.494 254.262 59.656 254.01 59.98C253.77 60.292 253.65 60.736 253.65 61.312V61.348H256.512ZM261.888 67C261.768 67 261.66 66.958 261.564 66.874C261.48 66.778 261.438 66.67 261.438 66.55V58.09C261.438 57.958 261.48 57.85 261.564 57.766C261.66 57.682 261.768 57.64 261.888 57.64H267.972C268.104 57.64 268.212 57.682 268.296 57.766C268.38 57.85 268.422 57.958 268.422 58.09V59.638C268.422 59.758 268.38 59.866 268.296 59.962C268.212 60.046 268.104 60.088 267.972 60.088H264.606V66.55C264.606 66.682 264.558 66.79 264.462 66.874C264.378 66.958 264.27 67 264.138 67H261.888ZM269.609 68.98C269.477 68.98 269.363 68.938 269.267 68.854C269.183 68.77 269.141 68.662 269.141 68.53V65.002C269.141 64.87 269.183 64.762 269.267 64.678C269.363 64.594 269.477 64.552 269.609 64.552H269.789C270.221 64.552 270.521 64.24 270.689 63.616C270.857 62.98 270.941 61.996 270.941 60.664V58.09C270.941 57.958 270.983 57.85 271.067 57.766C271.163 57.682 271.277 57.64 271.409 57.64H278.609C278.741 57.64 278.849 57.682 278.933 57.766C279.017 57.85 279.059 57.958 279.059 58.09V64.534H279.815C279.947 64.534 280.055 64.582 280.139 64.678C280.235 64.762 280.283 64.87 280.283 65.002V68.53C280.283 68.662 280.235 68.77 280.139 68.854C280.055 68.938 279.947 68.98 279.815 68.98H277.565C277.445 68.98 277.337 68.938 277.241 68.854C277.157 68.77 277.115 68.662 277.115 68.53V67H272.309V68.53C272.309 68.662 272.267 68.77 272.183 68.854C272.099 68.938 271.991 68.98 271.859 68.98H269.609ZM275.891 64.534V60.088H273.947V61.006C273.947 62.662 273.743 63.844 273.335 64.552L275.891 64.534ZM284.479 67.18C283.843 67.18 283.261 67.06 282.733 66.82C282.217 66.568 281.809 66.226 281.509 65.794C281.221 65.362 281.077 64.888 281.077 64.372C281.077 63.556 281.413 62.896 282.085 62.392C282.769 61.876 283.705 61.522 284.893 61.33L287.125 60.988V60.772C287.125 60.328 287.035 60.004 286.855 59.8C286.675 59.596 286.369 59.494 285.937 59.494C285.697 59.494 285.493 59.536 285.325 59.62C285.169 59.704 284.989 59.83 284.785 59.998C284.629 60.13 284.491 60.226 284.371 60.286C284.323 60.37 284.263 60.412 284.191 60.412H282.103C281.983 60.412 281.881 60.376 281.797 60.304C281.725 60.22 281.695 60.124 281.707 60.016C281.719 59.692 281.881 59.332 282.193 58.936C282.505 58.528 282.979 58.18 283.615 57.892C284.251 57.604 285.037 57.46 285.973 57.46C287.461 57.46 288.565 57.79 289.285 58.45C290.005 59.098 290.365 59.98 290.365 61.096V66.55C290.365 66.67 290.323 66.778 290.239 66.874C290.155 66.958 290.047 67 289.915 67H287.701C287.581 67 287.473 66.958 287.377 66.874C287.293 66.778 287.251 66.67 287.251 66.55V65.92C286.987 66.292 286.621 66.598 286.153 66.838C285.685 67.066 285.127 67.18 284.479 67.18ZM285.379 65.056C285.907 65.056 286.333 64.882 286.657 64.534C286.993 64.186 287.161 63.682 287.161 63.022V62.806L285.667 63.058C284.659 63.25 284.155 63.61 284.155 64.138C284.155 64.414 284.269 64.636 284.497 64.804C284.737 64.972 285.031 65.056 285.379 65.056ZM292.863 62.932C292.731 62.932 292.617 62.89 292.521 62.806C292.437 62.71 292.395 62.596 292.395 62.464V54.85C292.395 54.718 292.437 54.61 292.521 54.526C292.617 54.442 292.731 54.4 292.863 54.4H295.041C295.173 54.4 295.281 54.442 295.365 54.526C295.461 54.61 295.509 54.718 295.509 54.85V62.464C295.509 62.596 295.461 62.71 295.365 62.806C295.281 62.89 295.173 62.932 295.041 62.932H292.863ZM292.791 67C292.671 67 292.563 66.958 292.467 66.874C292.383 66.778 292.341 66.67 292.341 66.55V64.228C292.341 64.096 292.383 63.988 292.467 63.904C292.563 63.808 292.671 63.76 292.791 63.76H295.113C295.233 63.76 295.335 63.808 295.419 63.904C295.515 63.988 295.563 64.096 295.563 64.228V66.55C295.563 66.67 295.521 66.778 295.437 66.874C295.353 66.958 295.245 67 295.113 67H292.791Z" fill="#70C05B"/>
</svg>
